<?xml version="1.0" encoding="UTF-8" standalone="no"?>
<svg
        xmlns:dc="http://purl.org/dc/elements/1.1/"
        xmlns:cc="http://creativecommons.org/ns#"
        xmlns:rdf="http://www.w3.org/1999/02/22-rdf-syntax-ns#"
        xmlns="http://www.w3.org/2000/svg"
        xmlns:xlink="http://www.w3.org/1999/xlink"
        xmlns:sodipodi="http://sodipodi.sourceforge.net/DTD/sodipodi-0.dtd"
        xmlns:inkscape="http://www.inkscape.org/namespaces/inkscape"
        version="1.1"
        x="0"
        y="0"
        width="520"
        height="520"
        viewBox="0 0 520 520"
        id="svg15629"
        inkscape:version="0.91 r13725"
        sodipodi:docname="toothwithcrown.svg">
  <metadata
     id="metadata15722">
    <rdf:RDF>
      <cc:Work
         rdf:about="">
        <dc:format>image/svg+xml</dc:format>
        <dc:type
           rdf:resource="http://purl.org/dc/dcmitype/StillImage" />
        <dc:title></dc:title>
        <dc:description>remix by j4p4n</dc:description>
        <cc:license
           rdf:resource="http://creativecommons.org/publicdomain/zero/1.0/" />
      </cc:Work>
      <cc:License
         rdf:about="http://creativecommons.org/publicdomain/zero/1.0/">
        <cc:permits
           rdf:resource="http://creativecommons.org/ns#Reproduction" />
        <cc:permits
           rdf:resource="http://creativecommons.org/ns#Distribution" />
        <cc:permits
           rdf:resource="http://creativecommons.org/ns#DerivativeWorks" />
      </cc:License>
    </rdf:RDF>
  </metadata>
  <sodipodi:namedview
     pagecolor="#ffffff"
     bordercolor="#666666"
     borderopacity="1"
     objecttolerance="10"
     gridtolerance="10"
     guidetolerance="10"
     inkscape:pageopacity="0"
     inkscape:pageshadow="2"
     inkscape:window-width="1916"
     inkscape:window-height="1035"
     id="namedview15720"
     showgrid="false"
     fit-margin-top="0"
     fit-margin-left="0"
     fit-margin-right="0"
     fit-margin-bottom="0"
     inkscape:zoom="0.62902238"
     inkscape:cx="76.250772"
     inkscape:cy="505.39384"
     inkscape:window-x="4"
     inkscape:window-y="1"
     inkscape:window-maximized="1"
     inkscape:current-layer="g17501" />
  <defs
     id="defs15631">
    <linearGradient
       id="Gradient_1"
       gradientUnits="userSpaceOnUse"
       x1="463.89499"
       y1="309.98099"
       x2="527.56201"
       y2="309.98099"
       gradientTransform="translate(26.966736,-13.948312)">
      <stop
         offset="0"
         stop-color="#FFFFFE"
         id="stop15634" />
      <stop
         offset="1"
         stop-color="#BAE1ED"
         id="stop15636" />
    </linearGradient>
    <linearGradient
       id="Gradient_2"
       gradientUnits="userSpaceOnUse"
       x1="121.727"
       y1="225.59"
       x2="183.052"
       y2="225.59"
       gradientTransform="translate(26.966736,-13.948312)">
      <stop
         offset="0"
         stop-color="#FFFFFE"
         id="stop15639" />
      <stop
         offset="1"
         stop-color="#BAE1ED"
         id="stop15641" />
    </linearGradient>
    <linearGradient
       id="Gradient_3"
       gradientUnits="userSpaceOnUse"
       x1="167.883"
       y1="283.59601"
       x2="504.72501"
       y2="283.59601"
       gradientTransform="translate(26.966736,-13.948312)">
      <stop
         offset="0"
         stop-color="#FFFFFE"
         id="stop15644" />
      <stop
         offset="1"
         stop-color="#BAE1ED"
         id="stop15646" />
    </linearGradient>
    <linearGradient
       id="Gradient_4"
       gradientUnits="userSpaceOnUse"
       x1="87.014"
       y1="191.485"
       x2="144.595"
       y2="191.485"
       gradientTransform="translate(26.966736,-13.948312)">
      <stop
         offset="0"
         stop-color="#FFFFFE"
         id="stop15649" />
      <stop
         offset="1"
         stop-color="#BAE1ED"
         id="stop15651" />
    </linearGradient>
    <radialGradient
       r="3.5875001"
       gradientTransform="matrix(0.8,0,0,-0.8,-6.853e-7,21.64)"
       cx="40.700001"
       cy="-4.2997999"
       gradientUnits="userSpaceOnUse"
       id="radialGradient26">
      <stop
         offset="0"
         style="stop-color:#f7e35e"
         id="stop28" />
      <stop
         offset=".72940"
         style="stop-color:#b6952a"
         id="stop30" />
      <stop
         offset="1"
         style="stop-color:#805f1c"
         id="stop32" />
    </radialGradient>
    <radialGradient
       r="2.2249999"
       gradientTransform="matrix(0.8,0,0,-0.8,-6.853e-7,14.68)"
       cx="42.349998"
       cy="-8.6499004"
       gradientUnits="userSpaceOnUse"
       id="radialGradient46">
      <stop
         offset="0"
         style="stop-color:#a38925"
         id="stop48" />
      <stop
         offset="1"
         style="stop-color:#634d11"
         id="stop50" />
    </radialGradient>
    <radialGradient
       r="3.0875001"
       gradientTransform="matrix(0.8,0,0,-0.8,-6.853e-7,16.6)"
       cx="44.799999"
       cy="-7.4502001"
       gradientUnits="userSpaceOnUse"
       id="radialGradient64">
      <stop
         offset="0"
         style="stop-color:#f7e35e"
         id="stop66" />
      <stop
         offset=".72940"
         style="stop-color:#b6952a"
         id="stop68" />
      <stop
         offset="1"
         style="stop-color:#805f1c"
         id="stop70" />
    </radialGradient>
    <linearGradient
       x1="3.8374"
       y1="-12.678"
       gradientTransform="matrix(0.8,0,0,0.8,-6.853e-7,28.52)"
       x2="44.037998"
       gradientUnits="userSpaceOnUse"
       y2="-12.678"
       id="linearGradient84">
      <stop
         offset="0"
         style="stop-color:#c8a123"
         id="stop86" />
      <stop
         offset=".2902"
         style="stop-color:#debe36"
         id="stop88" />
      <stop
         offset=".92160"
         style="stop-color:#fefced"
         id="stop92" />
      <stop
         offset="1"
         style="stop-color:#fefced"
         id="stop94" />
    </linearGradient>
    <linearGradient
       x1="5.3125"
       y1="-18.51"
       gradientTransform="matrix(0.8,0,0,0.8,-6.853e-7,28.52)"
       x2="41.786999"
       gradientUnits="userSpaceOnUse"
       y2="-18.51"
       id="linearGradient108">
      <stop
         offset="0"
         style="stop-color:#805f1c"
         id="stop110" />
      <stop
         offset=".2157"
         style="stop-color:#b6952a"
         id="stop112" />
      <stop
         offset="0.851"
         style="stop-color:#f8e87a"
         id="stop114" />
      <stop
         offset="1"
         style="stop-color:#f8e87a"
         id="stop116" />
    </linearGradient>
    <linearGradient
       x1="11.45"
       y1="-31.216"
       gradientTransform="matrix(0.8,0,0,0.8,-6.853e-7,28.52)"
       x2="43.900002"
       gradientUnits="userSpaceOnUse"
       y2="-31.216"
       id="linearGradient130">
      <stop
         offset="0"
         style="stop-color:#c8a123"
         id="stop132" />
      <stop
         offset=".2902"
         style="stop-color:#debe36"
         id="stop134" />
      <stop
         offset=".92160"
         style="stop-color:#fefced"
         id="stop138" />
      <stop
         offset="1"
         style="stop-color:#fefced"
         id="stop140" />
    </linearGradient>
    <linearGradient
       x1="5.3374"
       y1="-30.799999"
       gradientTransform="matrix(0.8,0,0,0.8,-6.853e-7,28.52)"
       x2="42.062"
       gradientUnits="userSpaceOnUse"
       y2="-30.799999"
       id="linearGradient154">
      <stop
         offset="0"
         style="stop-color:#805f1c"
         id="stop156" />
      <stop
         offset=".2157"
         style="stop-color:#b6952a"
         id="stop158" />
      <stop
         offset="0.851"
         style="stop-color:#f8e87a"
         id="stop160" />
      <stop
         offset="1"
         style="stop-color:#f8e87a"
         id="stop162" />
    </linearGradient>
    <radialGradient
       r="3.8875"
       gradientTransform="matrix(0.8,0,0,-0.8,-6.853e-7,24.68)"
       cx="28.450001"
       cy="-2.3999"
       gradientUnits="userSpaceOnUse"
       id="radialGradient176">
      <stop
         offset="0"
         style="stop-color:#f7e35e"
         id="stop178" />
      <stop
         offset=".72940"
         style="stop-color:#b6952a"
         id="stop180" />
      <stop
         offset="1"
         style="stop-color:#805f1c"
         id="stop182" />
    </radialGradient>
    <radialGradient
       r="2.5875001"
       gradientTransform="matrix(0.8,0,0,-0.8,-6.853e-7,17.08)"
       cx="35.200001"
       cy="-7.1499"
       gradientUnits="userSpaceOnUse"
       id="radialGradient196">
      <stop
         offset="0"
         style="stop-color:#a38925"
         id="stop198" />
      <stop
         offset="1"
         style="stop-color:#634d11"
         id="stop200" />
    </radialGradient>
    <radialGradient
       r="14.162"
       gradientTransform="matrix(0.8,0,0,-0.8,-6.853e-7,-0.35999)"
       cx="25.1"
       cy="-18.049999"
       gradientUnits="userSpaceOnUse"
       id="radialGradient214">
      <stop
         offset="0"
         style="stop-color:#ae933d"
         id="stop216" />
      <stop
         offset=".2157"
         style="stop-color:#a98d3a"
         id="stop218" />
      <stop
         offset=".498"
         style="stop-color:#997d31"
         id="stop220" />
      <stop
         offset=".81570"
         style="stop-color:#7e6323"
         id="stop222" />
      <stop
         offset="1"
         style="stop-color:#6b5019"
         id="stop224" />
    </radialGradient>
    <radialGradient
       r="2.5875001"
       gradientTransform="matrix(0.8,0,0,-0.8,-6.853e-7,17.24)"
       cx="20.299999"
       cy="-7.0497999"
       gradientUnits="userSpaceOnUse"
       id="radialGradient238">
      <stop
         offset="0"
         style="stop-color:#a38925"
         id="stop240" />
      <stop
         offset="1"
         style="stop-color:#634d11"
         id="stop242" />
    </radialGradient>
    <radialGradient
       r="3.8875"
       gradientTransform="matrix(0.8,0,0,-0.8,-6.853e-7,23.72)"
       cx="13.45"
       cy="-3"
       gradientUnits="userSpaceOnUse"
       id="radialGradient256">
      <stop
         offset="0"
         style="stop-color:#f7e35e"
         id="stop258" />
      <stop
         offset=".72940"
         style="stop-color:#b6952a"
         id="stop260" />
      <stop
         offset="1"
         style="stop-color:#805f1c"
         id="stop262" />
    </radialGradient>
    <radialGradient
       r="3.4875"
       gradientTransform="matrix(0.8,0,0,-0.8,-6.853e-7,19.56)"
       cx="4.0497999"
       cy="-5.6001"
       gradientUnits="userSpaceOnUse"
       id="radialGradient276">
      <stop
         offset="0"
         style="stop-color:#f7e35e"
         id="stop278" />
      <stop
         offset=".72940"
         style="stop-color:#b6952a"
         id="stop280" />
      <stop
         offset="1"
         style="stop-color:#805f1c"
         id="stop282" />
    </radialGradient>
    <radialGradient
       r="2.5875001"
       gradientTransform="matrix(0.8,0,0,-0.8,-6.853e-7,15.64)"
       cx="2.25"
       cy="-8.0497999"
       gradientUnits="userSpaceOnUse"
       id="radialGradient296">
      <stop
         offset="0"
         style="stop-color:#f7e35e"
         id="stop298" />
      <stop
         offset=".60780"
         style="stop-color:#b6952a"
         id="stop300" />
      <stop
         offset="1"
         style="stop-color:#805f1c"
         id="stop302" />
    </radialGradient>
    <linearGradient
       x1="3.8374"
       y1="-12.675"
       gradientTransform="matrix(0.8,0,0,0.8,-6.853e-7,28.52)"
       x2="44.062"
       gradientUnits="userSpaceOnUse"
       y2="-12.675"
       id="linearGradient316">
      <stop
         offset="0"
         style="stop-color:#c8a123"
         id="stop318" />
      <stop
         offset=".2902"
         style="stop-color:#debe36"
         id="stop320" />
      <stop
         offset=".92160"
         style="stop-color:#fefced"
         id="stop324" />
      <stop
         offset="1"
         style="stop-color:#fefced"
         id="stop326" />
    </linearGradient>
    <radialGradient
       r="2.3125"
       gradientTransform="matrix(0.8,0,0,-0.8,-6.853e-7,15.64)"
       cx="7.2002001"
       cy="-8.0497999"
       gradientUnits="userSpaceOnUse"
       id="radialGradient340">
      <stop
         offset="0"
         style="stop-color:#a38925"
         id="stop342" />
      <stop
         offset="1"
         style="stop-color:#634d11"
         id="stop344" />
    </radialGradient>
    <linearGradient
       inkscape:collect="always"
       xlink:href="#radialGradient256"
       id="linearGradient16799"
       x1="-35.708092"
       y1="-2.8749285"
       x2="-29.62149"
       y2="-2.8749285"
       gradientUnits="userSpaceOnUse"
       gradientTransform="matrix(1.1210854,0,0,1.0897795,4.3138304,-1.6109763)" />
    <linearGradient
       inkscape:collect="always"
       xlink:href="#linearGradient108"
       id="linearGradient16904"
       gradientUnits="userSpaceOnUse"
       gradientTransform="matrix(0.8,0,0,0.8,-6.853e-7,28.52)"
       x1="5.3125"
       y1="-18.51"
       x2="41.786999"
       y2="-18.51" />
    <radialGradient
       inkscape:collect="always"
       xlink:href="#radialGradient256"
       id="radialGradient16906"
       gradientUnits="userSpaceOnUse"
       gradientTransform="matrix(0.8,0,0,-0.8,-6.853e-7,23.72)"
       cx="13.45"
       cy="-3"
       r="3.8875" />
    <linearGradient
       y2="309.981"
       x2="527.562"
       y1="309.981"
       x1="463.895"
       gradientUnits="userSpaceOnUse"
       id="Gradient_1-5"
       gradientTransform="translate(0,-2)">
      <stop
         id="stop17186"
         stop-color="#FFFFFE"
         offset="0" />
      <stop
         id="stop17188"
         stop-color="#BAE1ED"
         offset="1" />
    </linearGradient>
    <linearGradient
       y2="225.59"
       x2="183.052"
       y1="225.59"
       x1="121.727"
       gradientUnits="userSpaceOnUse"
       id="Gradient_2-8"
       gradientTransform="translate(0,-2)">
      <stop
         id="stop17191"
         stop-color="#FFFFFE"
         offset="0" />
      <stop
         id="stop17193"
         stop-color="#BAE1ED"
         offset="1" />
    </linearGradient>
    <linearGradient
       y2="283.596"
       x2="504.725"
       y1="283.596"
       x1="167.883"
       gradientUnits="userSpaceOnUse"
       id="Gradient_3-0"
       gradientTransform="translate(0,-2)">
      <stop
         id="stop17196"
         stop-color="#FFFFFE"
         offset="0" />
      <stop
         id="stop17198"
         stop-color="#BAE1ED"
         offset="1" />
    </linearGradient>
    <linearGradient
       y2="191.485"
       x2="144.595"
       y1="191.485"
       x1="87.014"
       gradientUnits="userSpaceOnUse"
       id="Gradient_4-6"
       gradientTransform="translate(0,-2)">
      <stop
         id="stop17201"
         stop-color="#FFFFFE"
         offset="0" />
      <stop
         id="stop17203"
         stop-color="#BAE1ED"
         offset="1" />
    </linearGradient>
    <linearGradient
       inkscape:collect="always"
       xlink:href="#radialGradient176"
       id="linearGradient17329"
       x1="-513.50049"
       y1="-46.813004"
       x2="-448.54868"
       y2="30.967203"
       gradientUnits="userSpaceOnUse" />
    <radialGradient
       inkscape:collect="always"
       xlink:href="#radialGradient176"
       id="radialGradient17336"
       gradientUnits="userSpaceOnUse"
       gradientTransform="matrix(0.8,0,0,-0.8,-6.853e-7,24.68)"
       cx="28.450001"
       cy="-2.3999"
       r="3.8875" />
  </defs>
  <g
     id="Layer_1"
     transform="translate(-61.521769,51.281945)">
    <g
       id="g17501">
      <g
         id="g10"
         transform="matrix(5.8611859,0,0,-5.4486593,252.36204,115.63941)">
        <g
           id="g12" />
      </g>
      <g
         id="g17662">
        <path
           style="fill:url(#Gradient_1)"
           inkscape:connector-curvature="0"
           d="m 554.48374,289.59069 c -0.938,-11.25 -23.428,-55.752 -32.871,-49.697 -7.911,5.117 -9.102,19.219 -3.497,27.022 5.118,7.119 11.68,13.769 8.829,23.847 -2.1,7.354 -14.395,11.299 -21.866,16.719 -6.201,-0.303 -11.826,6.172 -13.349,11.377 -3.516,11.973 4.17,24.267 13.603,31.201 6.69,4.922 14.473,2.559 19.737,-3.105 4.531,-4.883 2.666,-14.541 -1.895,-23.086 17.129,-9.6 32.295,-22.637 31.309,-34.278 z"
           id="path15654" />
        <path
           style="fill:#5f7b85"
           inkscape:connector-curvature="0"
           d="m 554.48374,289.59069 5.381,-0.448 c -0.085,-1.005 -0.259,-1.994 -0.492,-3.038 -0.441,-1.952 -1.104,-4.096 -1.948,-6.448 -1.477,-4.106 -3.513,-8.819 -5.891,-13.652 -3.574,-7.25 -7.883,-14.723 -12.315,-20.643 -2.23,-2.965 -4.471,-5.546 -6.874,-7.586 -1.208,-1.019 -2.463,-1.911 -3.882,-2.615 -1.413,-0.693 -3.039,-1.224 -4.913,-1.231 -1.627,-0.015 -3.413,0.477 -4.855,1.42 l -0.016,0.01 c -1.688,1.092 -3.132,2.445 -4.33,3.944 -1.799,2.252 -3.058,4.821 -3.885,7.499 -0.824,2.682 -1.219,5.485 -1.22,8.288 10e-4,2.632 0.35,5.267 1.077,7.804 0.728,2.534 1.836,4.978 3.41,7.171 2.279,3.155 4.558,5.943 6.111,8.552 0.781,1.301 1.384,2.542 1.784,3.74 0.399,1.203 0.608,2.357 0.61,3.606 -10e-4,1.007 -0.138,2.088 -0.488,3.329 l 0.004,-0.012 c -0.089,0.308 -0.243,0.655 -0.528,1.081 -0.488,0.739 -1.412,1.688 -2.721,2.679 -1.957,1.499 -4.71,3.064 -7.651,4.681 -2.947,1.632 -6.077,3.317 -8.944,5.389 l 3.171,4.371 0.272,-5.393 c -0.227,-0.012 -0.458,-0.018 -0.692,-0.018 -2.456,0 -4.736,0.643 -6.717,1.607 -2.979,1.46 -5.366,3.603 -7.27,5.962 -1.894,2.376 -3.314,4.969 -4.125,7.702 l 10e-4,-0.005 c -0.743,2.53 -1.087,5.087 -1.087,7.591 0,3.081 0.516,6.077 1.407,8.913 1.34,4.258 3.509,8.164 6.149,11.624 2.645,3.46 5.766,6.48 9.118,8.946 l -0.002,-10e-4 c 1.687,1.242 3.499,2.185 5.367,2.806 1.867,0.622 3.785,0.918 5.663,0.917 3.115,0 6.094,-0.803 8.761,-2.129 2.672,-1.328 5.055,-3.175 7.101,-5.373 l 0.003,-0.003 c 1.498,-1.611 2.535,-3.521 3.163,-5.477 0.632,-1.962 0.881,-3.977 0.883,-5.986 -0.004,-3.009 -0.555,-6.032 -1.454,-9.029 -0.902,-2.995 -2.163,-5.964 -3.681,-8.81 l -4.764,2.543 2.64,4.71 c 8.607,-4.831 16.783,-10.485 23.064,-16.701 3.138,-3.116 5.815,-6.381 7.791,-9.882 0.985,-1.752 1.794,-3.567 2.364,-5.457 0.568,-1.889 0.895,-3.857 0.895,-5.863 0,-0.513 -0.021,-1.027 -0.065,-1.54 l 10e-4,0.007 -5.381,0.448 -5.381,0.456 c 0.017,0.205 0.026,0.415 0.026,0.629 0,0.834 -0.134,1.742 -0.437,2.749 -0.525,1.759 -1.595,3.813 -3.21,5.989 -2.413,3.27 -6.021,6.78 -10.346,10.156 -4.324,3.383 -9.356,6.649 -14.601,9.588 -2.559,1.434 -3.505,4.666 -2.124,7.253 1.215,2.275 2.203,4.628 2.867,6.837 0.668,2.207 0.999,4.272 0.995,5.917 0.002,1.101 -0.143,2.003 -0.36,2.669 -0.22,0.672 -0.484,1.101 -0.802,1.447 l 0.003,-0.003 c -1.236,1.332 -2.623,2.375 -3.993,3.053 -1.375,0.681 -2.709,1.002 -3.958,1.002 -0.759,-0.001 -1.496,-0.114 -2.255,-0.365 -0.758,-0.254 -1.543,-0.647 -2.375,-1.258 l -0.002,-0.001 c -3.373,-2.474 -6.54,-5.818 -8.764,-9.474 -1.114,-1.827 -1.998,-3.727 -2.595,-5.63 -0.597,-1.904 -0.911,-3.805 -0.911,-5.677 10e-4,-1.524 0.206,-3.032 0.65,-4.548 l 0.001,-0.004 c 0.207,-0.718 0.624,-1.662 1.206,-2.595 0.866,-1.409 2.11,-2.786 3.344,-3.664 0.616,-0.444 1.221,-0.767 1.761,-0.965 0.544,-0.2 1.012,-0.28 1.436,-0.281 l 0.148,0.004 c 1.224,0.062 2.452,-0.303 3.443,-1.022 1.551,-1.128 3.554,-2.307 5.732,-3.52 3.274,-1.833 6.923,-3.718 10.242,-6.092 1.659,-1.195 3.25,-2.523 4.65,-4.139 1.392,-1.61 2.606,-3.555 3.263,-5.856 l 0.004,-0.013 c 0.606,-2.14 0.896,-4.246 0.895,-6.269 0.002,-2.512 -0.447,-4.879 -1.167,-7.028 -1.083,-3.23 -2.73,-5.974 -4.421,-8.435 -1.698,-2.461 -3.459,-4.663 -4.947,-6.738 -0.742,-1.03 -1.371,-2.35 -1.799,-3.848 -0.431,-1.495 -0.659,-3.159 -0.658,-4.824 -0.005,-2.365 0.467,-4.721 1.293,-6.6 0.41,-0.941 0.904,-1.764 1.446,-2.441 0.544,-0.679 1.131,-1.213 1.763,-1.622 l -0.016,0.01 -0.98,-1.526 0,1.818 c 0.243,0.016 0.731,-0.115 0.98,-0.292 l -0.98,-1.526 0,1.818 0,-0.85 -0.186,0.835 c 0.005,0.002 0.071,0.015 0.186,0.015 l 0,-0.85 -0.186,0.835 0.031,0.01 c 0.093,0.027 0.388,0.148 0.797,0.412 0.775,0.488 1.923,1.463 3.171,2.812 2.204,2.359 4.747,5.824 7.219,9.753 3.721,5.897 7.333,12.86 10.018,18.988 1.343,3.062 2.457,5.921 3.238,8.29 0.391,1.183 0.698,2.244 0.91,3.12 0.213,0.872 0.326,1.571 0.354,1.94 l 0.001,0.007 5.381,-0.456"
           id="path15656" />
        <path
           style="fill:url(#Gradient_2)"
           inkscape:connector-curvature="0"
           d="m 209.54174,222.84269 c -1.787,-5.927 -8.037,-9.306 -13.965,-7.5 -11.855,3.526 -21.66,-15.498 -26.123,-23.359 -3.174,-5.576 -4.345,-8.613 -11.308,-5.938 -4.17,1.592 -8.037,5.332 -9.151,9.727 -1.582,6.27 3.399,12.139 6.924,17.324 7.569,11.192 18.106,22.588 32.119,24.766 4.375,0.683 9.043,0.43 13.994,-1.055 5.938,-1.777 9.288,-8.027 7.51,-13.965 z"
           id="path15658" />
        <path
           style="fill:#5f7b85"
           inkscape:connector-curvature="0"
           d="m 209.54174,222.84269 5.17,-1.559 c -1.073,-3.569 -3.273,-6.551 -6.074,-8.604 -2.801,-2.057 -6.224,-3.223 -9.809,-3.224 -1.6,-0.001 -3.23,0.234 -4.829,0.723 l 0.039,-0.012 c -0.5,0.147 -0.94,0.206 -1.382,0.207 -0.605,-0.001 -1.233,-0.114 -1.962,-0.385 -1.267,-0.465 -2.821,-1.48 -4.411,-2.979 -2.396,-2.234 -4.816,-5.474 -6.895,-8.733 -1.043,-1.63 -2.01,-3.264 -2.885,-4.79 -0.876,-1.528 -1.658,-2.944 -2.354,-4.169 l -0.003,-0.005 c -0.569,-0.999 -1.1,-1.971 -1.679,-2.941 -0.435,-0.726 -0.896,-1.455 -1.45,-2.19 -0.416,-0.551 -0.887,-1.107 -1.448,-1.647 -0.835,-0.807 -1.907,-1.58 -3.167,-2.103 -1.256,-0.529 -2.648,-0.776 -3.975,-0.772 -1.063,10e-4 -2.095,0.143 -3.117,0.376 -1.023,0.235 -2.042,0.562 -3.104,0.97 l 0.013,-0.005 c -2.878,1.106 -5.493,2.853 -7.678,5.104 -2.172,2.254 -3.939,5.048 -4.781,8.342 l -0.002,0.004 c -0.319,1.265 -0.466,2.536 -0.466,3.765 0,2.041 0.398,3.951 0.984,5.681 0.886,2.599 2.175,4.837 3.475,6.855 1.304,2.012 2.638,3.814 3.701,5.381 l -0.007,-0.011 c 3.963,5.852 8.753,11.873 14.624,16.857 2.936,2.489 6.15,4.717 9.673,6.492 3.52,1.774 7.356,3.09 11.466,3.728 l -0.004,-0.001 c 1.783,0.279 3.613,0.425 5.478,0.425 3.529,0.001 7.183,-0.528 10.899,-1.642 l -0.001,0 c 3.583,-1.069 6.574,-3.276 8.624,-6.085 2.056,-2.809 3.212,-6.236 3.214,-9.818 0,-1.587 -0.229,-3.201 -0.704,-4.784 l -0.003,-0.01 -5.17,1.559 -5.173,1.549 c 0.171,0.572 0.249,1.134 0.249,1.686 0.001,1.242 -0.405,2.453 -1.128,3.439 -0.727,0.986 -1.729,1.733 -3.006,2.118 l -0.002,0 c -2.761,0.826 -5.341,1.187 -7.799,1.188 -1.301,0 -2.568,-0.102 -3.811,-0.296 l -0.004,0 c -2.897,-0.451 -5.634,-1.377 -8.267,-2.702 -3.945,-1.984 -7.649,-4.89 -11.04,-8.337 -3.392,-3.443 -6.463,-7.413 -9.169,-11.416 l -0.007,-0.011 c -1.647,-2.41 -3.359,-4.69 -4.54,-6.769 -0.593,-1.034 -1.051,-2.004 -1.338,-2.859 -0.291,-0.858 -0.414,-1.583 -0.414,-2.217 0.001,-0.385 0.043,-0.744 0.138,-1.122 l -0.001,0.005 c 0.271,-1.101 0.995,-2.374 2.077,-3.487 1.069,-1.115 2.473,-2.035 3.765,-2.521 l 0.013,-0.005 c 0.691,-0.266 1.241,-0.432 1.635,-0.522 0.395,-0.09 0.628,-0.104 0.708,-0.104 l 0.034,0.001 0.093,-0.862 -0.456,0.726 0.363,0.136 0.093,-0.862 -0.456,0.726 0.296,-0.472 -0.332,0.448 0.036,0.024 0.296,-0.472 -0.332,0.448 0.116,-0.157 -0.121,0.153 0.005,0.004 0.116,-0.157 -0.121,0.153 0.053,0.05 c 0.132,0.125 0.485,0.57 0.938,1.32 0.458,0.746 1.022,1.773 1.712,2.988 l -0.003,-0.005 c 0.988,1.738 2.327,4.192 3.938,6.873 2.433,4.03 5.453,8.597 9.234,12.425 1.899,1.912 4.003,3.653 6.436,4.987 2.42,1.327 5.238,2.241 8.291,2.239 1.474,0.001 2.982,-0.215 4.459,-0.654 l 0.039,-0.012 c 0.567,-0.173 1.123,-0.252 1.674,-0.252 1.226,-10e-4 2.429,0.403 3.416,1.129 0.988,0.73 1.74,1.741 2.127,3.017 l -0.003,-0.01 5.173,-1.549"
           id="path15660" />
        <path
           style="fill:url(#Gradient_3)"
           inkscape:connector-curvature="0"
           d="m 517.13974,145.19669 c -22.93,-37.529 -70.547,-70.684002 -115.244,-45.928002 -9.112,5.039002 -16.377,11.240002 -27.295,11.865002 -16.094,0.928 -19.336,0.772 -35.078,-6.728 -25.118,-12.002002 -49.493,-20.840002 -76.407,-8.604002 -22.021,10.020002 -41.201,28.887002 -53.72,49.395002 -54.903,89.873 61.123,248.476 91.65,285 10.703,12.803 22.969,26.992 36.348,13.164 12.558,-12.988 8.291,-35.86 25.82,-35.86 1.611,0 3.242,0 3.916,0 15.986,0 9.248,23.086 22.002,35.86 14.6,14.58 25.664,-0.361 36.357,-13.164 30.528,-36.514 146.573,-195.156 91.651,-285 z"
           id="path15662" />
        <path
           style="fill:#5f7b85"
           inkscape:connector-curvature="0"
           d="m 517.13974,145.19669 4.608,-2.816 c -9.091,-14.865 -21.795,-28.985 -36.797,-39.535 -7.502,-5.270002 -15.586,-9.642002 -24.095,-12.710002 -8.507,-3.066 -17.447,-4.825 -26.592,-4.825 -11.578,-0.008 -23.467,2.846 -34.985,9.234 l 0.003,-0.002 c -4.842,2.688 -8.925,5.483002 -12.858,7.528002 -1.967,1.028 -3.889,1.88 -5.866,2.507 -1.979,0.626 -4.012,1.035 -6.266,1.165 l -0.002,0 c -3.988,0.231 -7.117,0.387 -9.711,0.386 -1.958,-0.001 -3.607,-0.086 -5.152,-0.28 -2.315,-0.293 -4.444,-0.812 -7.181,-1.795 -2.728,-0.981 -6.032,-2.441 -10.401,-4.523002 l 0.006,0.002 c -8.397,-4.011 -16.828,-7.736 -25.461,-10.487 -8.629,-2.748 -17.483,-4.52 -26.634,-4.521 -9.389,-0.007 -19.066,1.893 -28.875,6.362 l -10e-4,0 c -11.636,5.297 -22.393,12.858002 -31.878,21.738002 -9.484,8.882 -17.699,19.087 -24.215,29.758 l 0,-0.001 c -5.43,8.888 -9.274,18.407 -11.749,28.328 -2.476,9.922 -3.588,20.244 -3.588,30.791 0.007,22.967 5.25,47.01 13.396,70.674 12.232,35.491 31.036,70.164 49.122,98.838 9.044,14.335 17.911,27.163 25.699,37.823 7.788,10.661 14.49,19.145 19.236,24.824 3.819,4.557 7.934,9.464 12.572,13.457 2.326,1.994 4.796,3.772 7.527,5.107 2.722,1.33 5.756,2.216 8.994,2.215 2.655,0.007 5.393,-0.615 7.969,-1.865 2.585,-1.246 5.009,-3.081 7.309,-5.458 l 0.002,-10e-4 c 3.803,-3.938 6.193,-8.463 7.976,-12.775 1.337,-3.242 2.347,-6.396 3.31,-9.219 0.718,-2.117 1.411,-4.045 2.136,-5.666 0.542,-1.216 1.101,-2.256 1.667,-3.088 0.425,-0.626 0.851,-1.136 1.281,-1.549 0.65,-0.62 1.287,-1.038 2.125,-1.366 0.837,-0.32 1.916,-0.548 3.443,-0.551 1.611,0 3.242,0 3.916,0 1.357,0.005 2.138,0.232 2.68,0.488 0.475,0.233 0.829,0.505 1.248,0.988 0.359,0.421 0.745,1.016 1.127,1.811 0.674,1.386 1.301,3.368 1.904,5.704 0.919,3.509 1.795,7.789 3.363,12.225 0.788,2.218 1.758,4.482 3.03,6.698 1.272,2.215 2.852,4.383 4.829,6.361 l 0.005,0.006 c 2.47,2.465 4.999,4.353 7.658,5.644 2.65,1.292 5.446,1.95 8.159,1.944 3.282,0.002 6.341,-0.932 9.033,-2.323 2.027,-1.045 3.882,-2.347 5.63,-3.79 2.619,-2.167 5.007,-4.662 7.291,-7.241 2.279,-2.579 4.449,-5.247 6.547,-7.758 l -0.002,0.002 c 6.326,-7.567 16.139,-20.134 27.351,-36.179 16.813,-24.066 36.751,-55.915 52.558,-90.281 7.902,-17.186 14.772,-35.003 19.684,-52.824 4.909,-17.822 7.865,-35.652 7.868,-52.876 -0.001,-10.549 -1.113,-20.872 -3.59,-30.794 -2.476,-9.92 -6.322,-19.439 -11.756,-28.326 l -4.607,2.817 -4.608,2.816 c 4.826,7.895 8.256,16.358 10.492,25.309 2.235,8.95 3.269,18.388 3.268,28.178 0.007,21.307 -4.921,44.277 -12.808,67.155 -11.819,34.322 -30.254,68.402 -48.049,96.597 -8.896,14.1 -17.63,26.736 -25.286,37.215 -7.655,10.478 -14.239,18.808 -18.802,24.266 l -0.002,0.002 c -3.82,4.586 -7.557,9.22 -11.115,12.454 -1.771,1.619 -3.479,2.872 -5.009,3.657 -1.543,0.79 -2.846,1.121 -4.088,1.124 -1.037,-0.007 -2.103,-0.218 -3.447,-0.862 -1.334,-0.646 -2.93,-1.762 -4.738,-3.568 l 0.005,0.005 c -1.221,-1.224 -2.226,-2.584 -3.093,-4.087 -1.516,-2.626 -2.585,-5.712 -3.476,-8.99 -0.671,-2.457 -1.243,-5.008 -1.908,-7.543 -0.5,-1.902 -1.052,-3.797 -1.79,-5.66 -0.555,-1.395 -1.217,-2.776 -2.079,-4.105 -0.646,-0.995 -1.408,-1.959 -2.313,-2.841 -1.353,-1.324 -3.049,-2.441 -4.962,-3.159 -1.914,-0.725 -4.007,-1.06 -6.202,-1.059 -0.674,0 -2.305,0 -3.916,0 -2.773,-0.003 -5.365,0.461 -7.678,1.413 -2.023,0.827 -3.799,2.022 -5.263,3.411 -1.286,1.216 -2.342,2.57 -3.236,3.972 -1.561,2.459 -2.654,5.067 -3.624,7.688 -1.443,3.933 -2.615,7.937 -4.121,11.579 -1.501,3.65 -3.292,6.874 -5.78,9.443 l 0.001,-0.002 c -1.597,1.651 -3.023,2.656 -4.238,3.241 -1.224,0.583 -2.236,0.787 -3.279,0.793 -1.259,-10e-4 -2.644,-0.336 -4.259,-1.121 -2.411,-1.163 -5.205,-3.375 -8.023,-6.197 -2.828,-2.816 -5.695,-6.2 -8.525,-9.588 -6.087,-7.282 -15.756,-19.658 -26.783,-35.441 -16.546,-23.677 -36.175,-55.065 -51.594,-88.603 -7.711,-16.767 -14.369,-34.068 -19.083,-51.179 -4.716,-17.111 -7.481,-34.026 -7.479,-50.009 0,-9.789 1.034,-19.227 3.267,-28.177 2.235,-8.951 5.664,-17.415 10.487,-25.312 l 0.001,-10e-4 c 6.003,-9.838 13.638,-19.32 22.379,-27.503 8.74,-8.186 18.583,-15.068 28.969,-19.791 l -10e-4,0.001 c 8.45,-3.835002 16.447,-5.386002 24.404,-5.393002 7.746,0 15.476,1.502 23.357,4.012 7.877,2.506002 15.881,6.021002 24.081,9.941002 l 0.006,0.003 c 3,1.429 5.59,2.614 7.963,3.6 3.554,1.478 6.658,2.519 9.793,3.167 3.133,0.651 6.22,0.883 9.623,0.881 3.016,-0.001 6.307,-0.172 10.333,-0.404 l -0.003,0 c 3.205,-0.182 6.175,-0.783 8.914,-1.652 4.114,-1.307 7.697,-3.19 11.034,-5.137 3.339,-1.953 6.452,-3.974 9.652,-5.742 l 0.003,-0.001 c 9.979,-5.519002 19.925,-7.874002 29.752,-7.882002 7.756,0.001 15.449,1.49 22.93,4.185002 11.216,4.039 21.938,10.814 31.408,19.182 9.472,8.362 17.684,18.307 23.93,28.534 l 4.608,-2.815"
           id="path15664" />
        <path
           style="fill:#1a1919"
           inkscape:connector-curvature="0"
           d="m 315.44074,189.46369 c 0,7.95 -6.465,14.405 -14.414,14.405 -7.969,0 -14.434,-6.455 -14.434,-14.405 0,-7.968 6.465,-14.433 14.434,-14.433 7.949,0 14.414,6.465 14.414,14.433"
           id="path15666" />
        <path
           style="fill:#1a1919"
           inkscape:connector-curvature="0"
           d="m 408.66274,189.46369 c 0,7.95 6.446,14.405 14.395,14.405 7.969,0 14.414,-6.455 14.414,-14.405 0,-7.968 -6.445,-14.433 -14.414,-14.433 -7.949,0 -14.395,6.465 -14.395,14.433"
           id="path15668" />
        <path
           style="fill:#1a1919"
           inkscape:connector-curvature="0"
           d="m 319.95374,214.41369 c -0.022,0.2 -0.104,1.045 -0.104,2.378 0.002,1.992 0.18,5.078 1.08,8.716 0.677,2.726 1.767,5.768 3.53,8.831 1.321,2.295 3.025,4.598 5.184,6.741 3.234,3.219 7.497,6.048 12.823,8.037 5.329,1.995 11.699,3.174 19.287,3.302 3.644,0.062 6.648,-2.842 6.71,-6.485 0.062,-3.644 -2.842,-6.648 -6.486,-6.71 -7.535,-0.129 -12.934,-1.476 -16.818,-3.274 -2.918,-1.354 -5.016,-2.957 -6.631,-4.66 -1.209,-1.278 -2.145,-2.624 -2.886,-3.992 -1.109,-2.049 -1.769,-4.16 -2.141,-6.031 -0.373,-1.869 -0.455,-3.487 -0.454,-4.475 0,-0.392 0.012,-0.684 0.022,-0.853 l 0.01,-0.159 10e-4,-0.009 -2.934,-0.263 2.929,0.315 0.005,-0.052 -2.934,-0.263 2.929,0.315 c 0.389,-3.624 -2.233,-6.876 -5.857,-7.266 -3.623,-0.389 -6.876,2.234 -7.265,5.857"
           id="path15670" />
        <path
           style="fill:#1a1919"
           inkscape:connector-curvature="0"
           d="m 390.82774,215.77969 4.234,-0.427 -4.238,0.38 0.004,0.047 4.234,-0.427 -4.238,0.38 0.178,-0.016 -0.178,0.015 0,0.001 0.178,-0.016 -0.178,0.015 c 0.002,0.037 0.027,0.361 0.027,0.899 0.002,1.119 -0.11,3.16 -0.683,5.48 -0.428,1.742 -1.11,3.635 -2.16,5.474 -0.788,1.38 -1.781,2.734 -3.061,4.017 -1.924,1.919 -4.491,3.71 -8.202,5.118 -3.707,1.401 -8.584,2.395 -14.991,2.504 -3.644,0.062 -6.547,3.066 -6.485,6.71 0.061,3.644 3.066,6.547 6.709,6.486 9.065,-0.153 16.41,-1.812 22.297,-4.56 4.411,-2.056 7.97,-4.727 10.716,-7.662 2.063,-2.199 3.67,-4.535 4.905,-6.841 1.855,-3.464 2.881,-6.851 3.455,-9.755 0.573,-2.906 0.696,-5.34 0.697,-6.971 0,-1.215 -0.07,-1.985 -0.089,-2.174 -0.365,-3.626 -3.601,-6.269 -7.227,-5.904 -3.626,0.365 -6.269,3.601 -5.904,7.227"
           id="path15672" />
        <path
           style="fill:#808180"
           inkscape:connector-curvature="0"
           d="m 361.50474,127.27569 c 1.679,0.139 3.393,0.338 5.144,0.535 l 0.003,0 c 5.247,0.585 10.048,1.29 15.248,1.901 5.198,0.611 10.78,1.119 17.492,1.289 l 0.002,0 c 0.336,0.008 0.67,0.012 1.003,0.012 3.052,-0.002 6.305,-0.323 9.608,-0.812 4.949,-0.736 10.004,-1.86 14.428,-2.96 4.418,-1.099 8.219,-2.18 10.527,-2.811 2.344,-0.64 3.724,-3.06 3.083,-5.403 -0.64,-2.344 -3.06,-3.724 -5.403,-3.083 -3.168,0.866 -8.686,2.444 -14.743,3.805 -3.023,0.679 -6.173,1.302 -9.185,1.749 -3.01,0.449 -5.89,0.718 -8.315,0.716 -0.271,0 -0.533,-0.003 -0.784,-0.009 l 0.002,0 c -6.395,-0.162 -11.652,-0.64 -16.689,-1.231 -5.034,-0.59 -9.862,-1.3 -15.299,-1.907 l 0.004,0 c -1.726,-0.193 -3.528,-0.405 -5.403,-0.559 -2.422,-0.2 -4.547,1.601 -4.746,4.023 -0.2,2.421 1.602,4.546 4.023,4.746"
           id="path15674" />
        <path
           style="fill:#808180"
           inkscape:connector-curvature="0"
           d="m 361.50674,118.50769 c -1.886,0.154 -3.688,0.365 -5.422,0.559 -5.436,0.607 -10.259,1.317 -15.291,1.907 -5.034,0.591 -10.291,1.069 -16.695,1.231 l 10e-4,0 c -0.251,0.006 -0.512,0.009 -0.783,0.009 -2.423,0.002 -5.301,-0.267 -8.309,-0.716 -4.519,-0.67 -9.338,-1.736 -13.592,-2.795 -4.261,-1.061 -7.944,-2.108 -10.321,-2.759 -2.344,-0.642 -4.764,0.738 -5.405,3.081 -0.642,2.343 0.738,4.763 3.081,5.405 3.081,0.843 8.786,2.478 15.126,3.904 3.175,0.713 6.518,1.376 9.817,1.867 3.301,0.489 6.552,0.81 9.603,0.812 0.332,0 0.667,-0.004 1.003,-0.012 l 10e-4,0 c 6.721,-0.17 12.304,-0.678 17.499,-1.289 5.199,-0.611 9.994,-1.316 15.241,-1.901 1.763,-0.197 3.477,-0.396 5.165,-0.535 2.421,-0.198 4.223,-2.322 4.025,-4.743 -0.199,-2.422 -2.323,-4.224 -4.744,-4.025"
           id="path15676" />
        <path
           style="fill:#f1bdce"
           inkscape:connector-curvature="0"
           d="m 296.64174,230.45969 c 0,8.487 -13.301,15.362 -29.697,15.362 -16.407,0 -29.707,-6.875 -29.707,-15.362 0,-8.476 13.3,-15.341 29.707,-15.341 16.396,0 29.697,6.865 29.697,15.341"
           id="path15678" />
        <path
           style="fill:#f1bdce"
           inkscape:connector-curvature="0"
           d="m 427.31574,230.45969 c 0,8.487 13.3,15.362 29.707,15.362 16.386,0 29.687,-6.875 29.687,-15.362 0,-8.476 -13.301,-15.341 -29.687,-15.341 -16.407,0 -29.707,6.865 -29.707,15.341"
           id="path15680" />
        <g
           id="g16811"
           transform="matrix(7.1253652,2.1331319,2.0433886,-6.4280939,366.26576,201.36343)"
           inkscape:transform-center-x="28.395411"
           inkscape:transform-center-y="-28.699697"
           style="">
          <rect
             ry="4.1052003"
             transform="matrix(0.9999476,0.01023684,-0.00910069,-0.99995859,0,0)"
             y="-21.724615"
             x="-35.475838"
             height="33.961201"
             width="6.339294"
             id="rect16783"
             style="opacity:1;fill:url(#linearGradient16799);fill-opacity:1;fill-rule:evenodd;stroke:#5c4a10;stroke-width:1.1296556;stroke-linecap:round;stroke-linejoin:round;stroke-miterlimit:4;stroke-dasharray:none;stroke-opacity:1" />
        </g>
        <g
           id="g16716"
           transform="matrix(-5.8611859,0,0,-5.4486593,478.74695,113.19133)"
           style="">
          <path
             id="path14"
             style="fill:#5c4a10;fill-rule:evenodd;stroke:#5c4a10;stroke-opacity:1"
             d="M 32.559,22.84 C 32.211,22.145 31.641,21 30.84,19.399 L 30,17.719 c -0.105,-0.16 -0.188,-0.32 -0.238,-0.48 -0.137,0.508 -0.282,1.094 -0.442,1.761 -0.187,0.774 -0.332,1.375 -0.441,1.801 0.293,0.078 0.547,0.227 0.762,0.438 0.293,0.293 0.437,0.64 0.437,1.043 0,0.398 -0.144,0.73 -0.437,1 -0.293,0.293 -0.641,0.437 -1.039,0.437 -0.403,0 -0.735,-0.144 -1,-0.437 -0.297,-0.27 -0.442,-0.602 -0.442,-1 0,-0.403 0.145,-0.75 0.442,-1.043 0.21,-0.239 0.476,-0.387 0.796,-0.438 L 26.762,15.52 c -0.297,0.695 -0.684,1.707 -1.16,3.039 -0.989,2.613 -1.575,4.242 -1.762,4.883 -0.106,0.293 -0.188,0.519 -0.238,0.68 0.371,0.078 0.691,0.253 0.957,0.519 0.347,0.371 0.519,0.801 0.519,1.277 0,0.508 -0.172,0.934 -0.519,1.282 -0.344,0.347 -0.774,0.519 -1.278,0.519 -0.48,0 -0.894,-0.172 -1.242,-0.519 -0.371,-0.348 -0.559,-0.774 -0.559,-1.282 0,-0.476 0.188,-0.906 0.559,-1.277 0.266,-0.266 0.586,-0.441 0.961,-0.519 -2.105,-4.403 -3.492,-7.27 -4.16,-8.602 -0.293,0.613 -0.68,1.586 -1.16,2.922 -0.453,1.277 -0.758,2.105 -0.918,2.476 0.371,0.028 0.691,0.161 0.957,0.403 0.269,0.293 0.402,0.64 0.402,1.039 0,0.398 -0.133,0.746 -0.402,1.039 -0.293,0.293 -0.641,0.441 -1.039,0.441 -0.399,0 -0.746,-0.148 -1.039,-0.441 -0.293,-0.293 -0.442,-0.641 -0.442,-1.039 0,-0.399 0.149,-0.746 0.442,-1.039 0.265,-0.242 0.586,-0.375 0.961,-0.403 l -1.204,-4.117 c -0.078,0.133 -0.16,0.266 -0.238,0.399 l -0.762,1.398 c -1.437,2.695 -2.253,4.297 -2.437,4.801 -0.055,0.133 -0.106,0.242 -0.16,0.32 0.293,0.106 0.547,0.266 0.758,0.481 0.347,0.347 0.519,0.773 0.519,1.281 0,0.504 -0.172,0.934 -0.519,1.277 -0.348,0.348 -0.774,0.524 -1.278,0.524 -0.48,0 -0.894,-0.176 -1.242,-0.524 C 9.668,26.415 9.48,25.989 9.48,25.481 c 0,-0.508 0.188,-0.934 0.559,-1.281 0.293,-0.293 0.656,-0.465 1.082,-0.52 -0.32,-1.199 -1.055,-3.988 -2.199,-8.359 -0.348,0.531 -0.856,1.613 -1.524,3.238 -0.32,0.75 -0.57,1.348 -0.757,1.801 0.16,0.082 0.304,0.187 0.437,0.32 0.242,0.238 0.363,0.547 0.363,0.918 0,0.375 -0.121,0.684 -0.363,0.922 -0.266,0.266 -0.57,0.398 -0.918,0.398 -0.348,0 -0.652,-0.132 -0.922,-0.398 C 4.973,22.254 4.84,21.946 4.84,21.598 4.84,21.227 4.973,20.918 5.238,20.68 5.453,20.465 5.707,20.333 6,20.282 5.973,20.012 5.961,19.692 5.961,19.321 5.934,18.758 5.922,18.2 5.922,17.641 c -0.75,1.785 -1.242,3 -1.481,3.641 -0.082,0.238 -0.16,0.437 -0.242,0.597 0.242,0.082 0.469,0.227 0.68,0.442 0.32,0.293 0.48,0.664 0.48,1.121 0,0.453 -0.16,0.824 -0.48,1.117 -0.32,0.32 -0.707,0.481 -1.16,0.481 -0.426,0 -0.797,-0.161 -1.117,-0.481 -0.321,-0.32 -0.481,-0.691 -0.481,-1.117 0,-0.137 0.012,-0.27 0.039,-0.402 C 1.785,23.012 1.48,22.868 1.238,22.598 0.945,22.305 0.801,21.961 0.801,21.559 c 0,-0.398 0.144,-0.746 0.437,-1.039 0.27,-0.266 0.602,-0.398 1,-0.398 l 0.321,0 0.203,-1.321 0.437,-2.922 C 3.281,15.348 3.375,14.333 3.48,12.84 3.586,11.215 3.707,9.04 3.84,6.321 l 1,-0.442 -1.121,15.403 C 3.855,21.254 4,21.055 4.16,20.68 L 4.238,19.321 C 4.293,18.68 4.375,18.04 4.48,17.399 4.668,16.2 4.906,15 5.199,13.801 5.227,13.719 5.426,11.786 5.801,8 5.961,6.454 6.785,5.493 8.281,5.122 9.668,4.747 10.855,4.481 11.84,4.321 14,4.133 16.492,4.04 19.32,4.04 c 5.52,0 9.707,0.265 12.559,0.8 L 32,4.84 C 31.68,4.758 31.32,4.665 30.922,4.559 28.281,3.946 23.973,3.614 18,3.559 12.934,3.532 9.012,3.825 6.238,4.442 L 6.121,4.481 C 5.988,4.481 5.867,4.465 5.762,4.442 5.172,4.305 4.945,3.989 5.078,3.481 l 0,-0.082 C 5.188,3 5.332,2.665 5.52,2.399 5.922,2.215 6.281,2.067 6.602,1.961 c 2.586,-0.773 6.73,-1.16 12.437,-1.16 5.789,0 10.094,0.387 12.922,1.16 1.519,0.426 2.84,1.106 3.961,2.039 0.531,1.012 0.211,1.934 -0.961,2.758 C 34.855,6.84 34.746,6.907 34.641,6.961 34.613,6.665 34.602,6.36 34.602,6.04 c 0,-0.051 -0.016,-0.106 -0.043,-0.161 l 0.043,0.801 c 0.05,2.426 0.132,4.465 0.238,6.121 0.082,1.813 0.199,3.145 0.359,4 l 0.281,1.598 0.399,2.242 c 0.133,-0.027 0.266,-0.043 0.402,-0.043 0.399,0 0.746,0.137 1.039,0.402 0.266,0.293 0.399,0.641 0.399,1.04 0,0.375 -0.133,0.707 -0.399,1 -0.293,0.265 -0.64,0.402 -1.039,0.402 -0.402,0 -0.734,-0.137 -1,-0.402 -0.242,-0.239 -0.375,-0.508 -0.402,-0.801 -0.211,0.109 -0.426,0.16 -0.641,0.16 -0.343,0 -0.636,-0.117 -0.879,-0.359 -0.105,-0.106 -0.187,-0.227 -0.238,-0.36 l -0.082,0.801 0,0.32 c 0.453,0 0.856,0.16 1.199,0.481 0.321,0.343 0.481,0.746 0.481,1.199 0,0.453 -0.16,0.84 -0.481,1.16 -0.343,0.32 -0.746,0.481 -1.199,0.481 -0.453,0 -0.84,-0.161 -1.16,-0.481 -0.32,-0.32 -0.481,-0.707 -0.481,-1.16 0,-0.453 0.161,-0.856 0.481,-1.199 0.215,-0.215 0.441,-0.364 0.68,-0.442 z m 2.242,3.36 c 0.48,-0.481 0.719,-1.055 0.719,-1.719 l -0.04,-0.359 c 0.239,0.078 0.508,0.117 0.801,0.117 0.614,0 1.145,-0.211 1.598,-0.641 0.426,-0.426 0.641,-0.945 0.641,-1.558 0,-0.586 -0.188,-1.094 -0.559,-1.52 -0.402,-0.426 -0.883,-0.668 -1.441,-0.719 L 36,16.641 C 35.762,15.254 35.559,12.172 35.398,7.399 36.145,6.895 36.625,6.305 36.84,5.641 37.055,4.973 36.988,4.293 36.641,3.598 L 36.441,3.36 36.32,3.282 C 35.145,2.321 33.734,1.614 32.078,1.161 29.172,0.387 24.828,0 19.039,0 13.734,0 9.746,0.333 7.078,1 5.559,1.375 4.172,2.012 2.922,2.918 L 2.398,3.321 C 2.293,3.348 2.215,3.426 2.16,3.559 1.707,4.254 1.559,4.934 1.719,5.598 1.879,6.239 2.293,6.801 2.961,7.282 2.801,11.547 2.613,14.375 2.398,15.758 L 1.879,19.321 C 1.348,19.426 0.895,19.68 0.52,20.079 0.172,20.508 0,21 0,21.559 c 0,0.988 0.441,1.68 1.32,2.082 0.055,0.613 0.305,1.133 0.758,1.559 0.453,0.425 1,0.64 1.641,0.64 0.613,0 1.16,-0.199 1.64,-0.601 0.453,-0.426 0.707,-0.934 0.762,-1.52 l 0.039,0 c 0.586,0 1.078,-0.211 1.481,-0.64 0.398,-0.399 0.597,-0.891 0.597,-1.481 0,-0.613 -0.199,-1.117 -0.597,-1.519 l 1,-2.481 1.48,5.563 c -0.961,0.504 -1.441,1.281 -1.441,2.32 0,0.719 0.254,1.332 0.761,1.84 0.532,0.504 1.145,0.758 1.84,0.758 0.719,0 1.332,-0.254 1.84,-0.758 0.504,-0.508 0.758,-1.121 0.758,-1.84 0,-0.906 -0.348,-1.613 -1.039,-2.121 l 2.281,-4.442 0.438,1.481 c -0.774,0.453 -1.161,1.109 -1.161,1.961 0,0.613 0.227,1.148 0.68,1.601 0.453,0.454 0.988,0.68 1.602,0.68 0.613,0 1.148,-0.226 1.601,-0.68 0.426,-0.453 0.641,-0.988 0.641,-1.601 0,-0.828 -0.363,-1.465 -1.082,-1.918 l 0.359,-1 c 0.242,-0.75 0.481,-1.402 0.723,-1.961 l 3,6.238 c -0.828,0.535 -1.242,1.266 -1.242,2.199 0,0.723 0.254,1.336 0.761,1.84 0.532,0.508 1.145,0.762 1.84,0.762 0.719,0 1.332,-0.254 1.84,-0.762 0.504,-0.504 0.758,-1.117 0.758,-1.84 0,-1.011 -0.426,-1.757 -1.277,-2.238 0.371,-1.281 1.066,-3.172 2.078,-5.68 l 0.718,2.36 c -0.691,0.426 -1.039,1.066 -1.039,1.922 0,0.613 0.215,1.144 0.641,1.597 0.453,0.426 0.988,0.641 1.602,0.641 0.613,0 1.144,-0.215 1.597,-0.641 0.453,-0.453 0.68,-0.984 0.68,-1.597 0,-0.828 -0.359,-1.469 -1.078,-1.922 l 0.238,-0.801 1.481,3 c -0.614,0.481 -0.918,1.121 -0.918,1.922 0,0.664 0.238,1.238 0.718,1.719 0.481,0.48 1.055,0.718 1.719,0.718 0.695,0 1.281,-0.238 1.762,-0.718 z M 33.879,19.918 33.32,18.36 c -0.027,0.64 -0.066,1.332 -0.121,2.082 0.055,-0.055 0.106,-0.121 0.16,-0.203 0.161,-0.16 0.336,-0.266 0.52,-0.321 z m 1.601,0.922 c 0.106,-0.082 0.215,-0.132 0.321,-0.16 -0.856,-2.746 -1.442,-4.613 -1.762,-5.601 l 0.16,4.8 0.039,0 c 0.375,0 0.684,0.121 0.922,0.36 0.16,0.16 0.266,0.359 0.32,0.601 z M 3.719,21.282 3.84,17.918 c -0.028,0.055 -0.051,0.11 -0.078,0.161 -0.348,0.48 -0.617,0.972 -0.801,1.48 l -0.242,0.602 c 0.187,0.078 0.375,0.199 0.562,0.359 0.266,0.266 0.414,0.574 0.438,0.922 l 0,-0.16 z m -0.117,-15 0,0.476 C 2.375,5.961 2.121,5.04 2.84,4 3,3.895 3.145,3.801 3.281,3.719 3.012,4.145 2.906,4.614 2.961,5.122 3.039,5.547 3.254,5.934 3.602,6.282 Z"
             inkscape:connector-curvature="0" />
          <g
             id="g16">
            <g
               id="g18">
              <g
                 id="g24">
                <path
                   id="path34"
                   style="fill:url(#radialGradient26);fill-rule:evenodd"
                   d="m 33.039,22.801 c -0.184,0 -0.344,0.012 -0.48,0.039 -0.239,0.078 -0.465,0.227 -0.68,0.442 -0.32,0.343 -0.481,0.746 -0.481,1.199 0,0.453 0.161,0.84 0.481,1.16 0.32,0.32 0.707,0.481 1.16,0.481 0.453,0 0.856,-0.161 1.199,-0.481 0.321,-0.32 0.481,-0.707 0.481,-1.16 0,-0.453 -0.16,-0.856 -0.481,-1.199 -0.343,-0.321 -0.746,-0.481 -1.199,-0.481 z"
                   inkscape:connector-curvature="0" />
              </g>
            </g>
          </g>
          <g
             id="g36">
            <g
               id="g38">
              <g
                 id="g44">
                <path
                   id="path52"
                   style="fill:url(#radialGradient46);fill-rule:evenodd"
                   d="m 34.199,19.879 c -0.105,0 -0.211,0.016 -0.32,0.039 -0.184,0.055 -0.359,0.161 -0.52,0.321 -0.054,0.082 -0.105,0.148 -0.16,0.203 -0.027,0.211 -0.039,0.437 -0.039,0.68 l 0,0.199 c 0,0.133 -0.015,0.254 -0.039,0.359 0.051,0.133 0.133,0.254 0.238,0.36 0.243,0.242 0.536,0.359 0.879,0.359 0.215,0 0.43,-0.051 0.641,-0.16 -0.024,-0.051 -0.039,-0.117 -0.039,-0.199 0,-0.399 0.148,-0.747 0.441,-1.04 0.051,-0.054 0.117,-0.105 0.199,-0.16 -0.054,-0.242 -0.16,-0.441 -0.32,-0.601 -0.238,-0.239 -0.547,-0.36 -0.922,-0.36 l -0.039,0 z"
                   inkscape:connector-curvature="0" />
              </g>
            </g>
          </g>
          <g
             id="g54">
            <g
               id="g56">
              <g
                 id="g62">
                <path
                   id="path72"
                   style="fill:url(#radialGradient64);fill-rule:evenodd"
                   d="m 35.801,20.68 c -0.106,0.028 -0.215,0.078 -0.321,0.16 -0.082,0.055 -0.148,0.106 -0.199,0.16 -0.293,0.293 -0.441,0.641 -0.441,1.04 0,0.082 0.015,0.148 0.039,0.199 0.027,0.293 0.16,0.562 0.402,0.801 0.266,0.265 0.598,0.402 1,0.402 0.399,0 0.746,-0.137 1.039,-0.402 0.266,-0.293 0.399,-0.625 0.399,-1 0,-0.399 -0.133,-0.747 -0.399,-1.04 -0.293,-0.265 -0.64,-0.402 -1.039,-0.402 -0.136,0 -0.269,0.016 -0.402,0.043 -0.024,0.024 -0.051,0.039 -0.078,0.039 z"
                   inkscape:connector-curvature="0" />
              </g>
            </g>
          </g>
          <g
             id="g74">
            <g
               id="g76">
              <g
                 id="g82">
                <path
                   id="path96"
                   style="fill:url(#linearGradient84);fill-rule:evenodd"
                   d="M 5.922,17.641 C 5.973,17.559 6.012,17.465 6.039,17.36 L 6.16,17.079 c 0.028,-0.051 0.051,-0.106 0.078,-0.161 0.59,-1.359 0.989,-2.21 1.203,-2.558 l 0,-0.039 L 7.48,14.282 7.52,14.2 c 0.214,-0.215 0.414,-0.305 0.601,-0.282 0.106,0 0.199,0.028 0.277,0.082 0.11,0.106 0.215,0.293 0.321,0.559 0,0.055 0.015,0.121 0.043,0.199 0.05,0.188 0.105,0.375 0.16,0.563 1.144,4.371 1.879,7.16 2.199,8.359 l 0.16,0 c 0.184,0 0.36,0.012 0.52,0.039 0.054,-0.078 0.105,-0.187 0.16,-0.32 0.184,-0.504 1,-2.106 2.437,-4.801 L 15.16,17.2 c 0.078,-0.133 0.16,-0.266 0.238,-0.399 0.829,-1.519 1.321,-2.359 1.481,-2.519 0.562,-0.508 1.094,-0.321 1.601,0.558 0.079,0.133 0.2,0.36 0.36,0.68 0.668,1.332 2.055,4.199 4.16,8.602 l 0.602,0 c 0.05,-0.161 0.132,-0.387 0.238,-0.68 0.187,-0.641 0.773,-2.27 1.762,-4.883 0.476,-1.332 0.863,-2.344 1.16,-3.039 0.105,-0.293 0.199,-0.535 0.277,-0.719 0.082,-0.187 0.133,-0.308 0.16,-0.359 0.16,-0.27 0.293,-0.414 0.403,-0.442 0.183,-0.054 0.425,0.145 0.718,0.598 0.16,0.27 0.508,0.91 1.039,1.922 0.106,0.238 0.243,0.48 0.403,0.719 0.05,0.16 0.133,0.32 0.238,0.48 l 0.84,1.68 c 0.801,1.601 1.375,2.746 1.719,3.441 0.136,-0.027 0.296,-0.039 0.48,-0.039 l 0,-0.32 0.082,-0.801 c 0.024,-0.105 0.039,-0.226 0.039,-0.359 l 0,-0.199 c 0,-0.243 0.012,-0.469 0.039,-0.68 0.055,-0.75 0.094,-1.442 0.121,-2.082 l 0.559,1.558 c 0.109,-0.023 0.215,-0.039 0.32,-0.039 l -0.16,-4.8 c 0.32,0.988 0.906,2.855 1.762,5.601 0.027,0 0.054,-0.015 0.078,-0.039 L 35.48,18.399 c -1.015,-3.305 -1.601,-5.094 -1.761,-5.359 -0.106,-0.215 -0.293,2.039 -0.559,6.761 -0.16,1.891 -0.238,2.758 -0.238,2.598 0,-0.106 -0.695,-1.531 -2.082,-4.277 -1.36,-2.696 -2.199,-4.309 -2.52,-4.84 -0.293,-0.43 -0.535,-0.629 -0.718,-0.602 -0.11,0.028 -0.243,0.188 -0.403,0.481 -0.133,0.265 -0.664,1.64 -1.597,4.121 -0.989,2.586 -1.575,4.211 -1.762,4.879 -0.215,0.64 -0.36,1.027 -0.442,1.16 -0.05,0.105 -0.117,0.078 -0.199,-0.082 -2.746,-5.731 -4.32,-8.973 -4.719,-9.719 -0.507,-0.855 -1.039,-1.027 -1.601,-0.52 -0.184,0.133 -1.012,1.559 -2.481,4.282 -1.41,2.664 -2.226,4.265 -2.437,4.797 -0.402,0.933 -0.629,1.269 -0.68,1 C 11.227,22.918 10.387,19.719 8.762,13.481 8.625,12.918 8.414,12.641 8.121,12.641 7.934,12.614 7.734,12.708 7.52,12.918 7.414,13.028 6.922,14.079 6.039,16.079 5.215,18.028 4.68,19.333 4.441,20 4.332,20.266 4.238,20.493 4.16,20.68 4,21.055 3.855,21.254 3.719,21.282 l 0,0.558 c 0.16,0 0.32,0.012 0.48,0.039 0.082,-0.16 0.16,-0.359 0.242,-0.597 0.239,-0.641 0.731,-1.856 1.481,-3.641 z"
                   inkscape:connector-curvature="0" />
              </g>
            </g>
          </g>
          <g
             id="g98">
            <g
               id="g100">
              <g
                 id="g106">
                <path
                   id="path118"
                   style="fill:url(#linearGradient16904);fill-rule:evenodd"
                   d="M 34.559,5.879 34.52,5.641 C 34.199,5.375 33.359,5.106 32,4.84 l -0.121,0 C 29.027,4.305 24.84,4.04 19.32,4.04 16.492,4.04 14,4.133 11.84,4.321 10.855,4.481 9.668,4.747 8.281,5.122 6.785,5.493 5.961,6.454 5.801,8 5.426,11.786 5.227,13.719 5.199,13.801 4.906,15 4.668,16.2 4.48,17.399 4.375,18.04 4.293,18.68 4.238,19.321 L 4.16,20.68 C 4.238,20.493 4.332,20.266 4.441,20 4.68,19.333 5.215,18.028 6.039,16.079 c 0.883,-2 1.375,-3.051 1.481,-3.161 0.214,-0.21 0.414,-0.304 0.601,-0.277 0.293,0 0.504,0.277 0.641,0.84 1.625,6.238 2.465,9.437 2.519,9.598 0.051,0.269 0.278,-0.067 0.68,-1 0.211,-0.532 1.027,-2.133 2.437,-4.797 1.469,-2.723 2.297,-4.149 2.481,-4.282 0.562,-0.507 1.094,-0.335 1.601,0.52 0.399,0.746 1.973,3.988 4.719,9.719 0.082,0.16 0.149,0.187 0.199,0.082 0.082,-0.133 0.227,-0.52 0.442,-1.16 0.187,-0.668 0.773,-2.293 1.762,-4.879 0.933,-2.481 1.464,-3.856 1.597,-4.121 0.16,-0.293 0.293,-0.453 0.403,-0.481 0.183,-0.027 0.425,0.172 0.718,0.602 0.321,0.531 1.16,2.144 2.52,4.84 1.387,2.746 2.082,4.171 2.082,4.277 0,0.16 0.078,-0.707 0.238,-2.598 0.266,-4.722 0.453,-6.976 0.559,-6.761 0.16,0.265 0.75,2.054 1.761,5.359 l -0.281,-1.598 c -0.16,-0.855 -0.277,-2.187 -0.359,-4 C 34.734,11.145 34.652,9.106 34.602,6.68 L 34.559,5.879 Z M 2.762,18.801 2.961,18.282 C 3.172,17.692 3.465,17.133 3.84,16.598 L 3.801,17.961 C 3.773,17.989 3.762,18.028 3.762,18.079 3.785,18.028 3.812,17.973 3.84,17.918 L 3.719,21.282 4.84,5.879 3.84,6.321 C 3.707,9.04 3.586,11.215 3.48,12.84 3.375,14.333 3.281,15.348 3.199,15.879 l -0.437,2.922 z"
                   inkscape:connector-curvature="0" />
              </g>
            </g>
          </g>
          <g
             id="g120">
            <g
               id="g122">
              <g
                 id="g128">
                <path
                   id="path142"
                   style="fill:url(#linearGradient130);fill-rule:evenodd"
                   d="m 32.84,4.079 c 1.254,0.402 2.015,0.8 2.281,1.203 C 34.934,3.254 30.707,2.106 22.441,1.84 18.414,1.735 15,1.961 12.199,2.52 l -3.039,0.922 2,-0.524 c 2.293,-0.293 5.828,-0.386 10.602,-0.277 4.879,0.133 8.57,0.613 11.078,1.438 z"
                   inkscape:connector-curvature="0" />
              </g>
            </g>
          </g>
          <g
             id="g144">
            <g
               id="g146">
              <g
                 id="g152">
                <path
                   id="path164"
                   style="fill:url(#linearGradient154);fill-rule:evenodd"
                   d="m 32,4.84 c 1.359,0.266 2.199,0.535 2.52,0.801 l 0.039,0.238 c 0.027,0.055 0.043,0.106 0.043,0.161 0,0.32 0.011,0.625 0.039,0.921 C 34.746,6.907 34.855,6.84 34.961,6.758 36.133,5.934 36.453,5.012 35.922,4 34.801,3.067 33.48,2.387 31.961,1.961 29.133,1.188 24.828,0.801 19.039,0.801 13.332,0.801 9.188,1.188 6.602,1.961 6.281,2.067 5.922,2.215 5.52,2.399 5.332,2.665 5.188,3 5.078,3.399 l 0,0.082 C 4.945,3.985 5.172,4.305 5.762,4.442 5.867,4.465 5.988,4.481 6.121,4.481 L 6.238,4.442 C 9.012,3.825 12.934,3.532 18,3.559 c 5.973,0.055 10.281,0.387 12.922,1 C 31.32,4.665 31.68,4.758 32,4.84 Z M 32.84,4.079 C 30.332,3.254 26.641,2.774 21.762,2.641 16.988,2.532 13.453,2.625 11.16,2.918 l -2,0.524 3.039,-0.922 C 15,1.961 18.414,1.735 22.441,1.84 30.707,2.106 34.934,3.254 35.121,5.282 34.855,4.879 34.094,4.481 32.84,4.079 Z M 3.602,6.282 C 3.254,5.934 3.039,5.547 2.961,5.122 2.906,4.614 3.012,4.145 3.281,3.719 3.145,3.801 3,3.895 2.84,4 2.121,5.04 2.375,5.961 3.602,6.758 l 0,-0.476 z"
                   inkscape:connector-curvature="0" />
              </g>
            </g>
          </g>
          <g
             id="g166">
            <g
               id="g168">
              <g
                 id="g174">
                <path
                   id="path184"
                   style="fill:url(#radialGradient17336);fill-rule:evenodd"
                   d="m 23.602,24.122 -0.602,0 c -0.375,0.078 -0.695,0.253 -0.961,0.519 -0.371,0.371 -0.559,0.801 -0.559,1.277 0,0.508 0.188,0.934 0.559,1.282 0.348,0.347 0.762,0.519 1.242,0.519 0.504,0 0.934,-0.172 1.278,-0.519 0.347,-0.348 0.519,-0.774 0.519,-1.282 0,-0.476 -0.172,-0.906 -0.519,-1.277 -0.266,-0.266 -0.586,-0.441 -0.957,-0.519 z"
                   inkscape:connector-curvature="0" />
              </g>
            </g>
          </g>
          <g
             id="g186">
            <g
               id="g188">
              <g
                 id="g194">
                <path
                   id="path202"
                   style="fill:url(#radialGradient196);fill-rule:evenodd"
                   d="m 28.879,20.801 -0.481,0 c -0.32,0.051 -0.586,0.199 -0.796,0.438 -0.297,0.293 -0.442,0.64 -0.442,1.043 0,0.398 0.145,0.73 0.442,1 0.265,0.293 0.597,0.437 1,0.437 0.398,0 0.746,-0.144 1.039,-0.437 0.293,-0.27 0.437,-0.602 0.437,-1 0,-0.403 -0.144,-0.75 -0.437,-1.043 -0.215,-0.211 -0.469,-0.36 -0.762,-0.438 z"
                   inkscape:connector-curvature="0" />
              </g>
            </g>
          </g>
          <g
             id="g204">
            <g
               id="g206">
              <g
                 id="g212">
                <path
                   id="path226"
                   style="fill:url(#radialGradient214);fill-rule:evenodd"
                   d="M 8.922,15.321 C 8.867,15.133 8.812,14.946 8.762,14.758 8.734,14.68 8.719,14.614 8.719,14.559 8.613,14.293 8.508,14.106 8.398,14 8.32,13.946 8.227,13.918 8.121,13.918 7.934,13.895 7.734,13.985 7.52,14.2 l -0.04,0.082 -0.039,0.039 0,0.039 c -0.214,0.348 -0.613,1.199 -1.203,2.558 -0.023,0.055 -0.05,0.11 -0.078,0.161 L 6.039,17.36 c -0.027,0.105 -0.066,0.199 -0.117,0.281 0,0.559 0.012,1.117 0.039,1.68 0,0.371 0.012,0.691 0.039,0.961 l 0.16,0 c 0.16,0 0.32,0.023 0.481,0.078 0.187,-0.453 0.437,-1.051 0.757,-1.801 0.668,-1.625 1.176,-2.707 1.524,-3.238 z m 17.84,0.199 1.636,5.281 0.481,0 C 28.988,20.375 29.133,19.774 29.32,19 29.48,18.333 29.625,17.747 29.762,17.239 29.602,17 29.465,16.758 29.359,16.52 28.828,15.508 28.48,14.868 28.32,14.598 28.027,14.145 27.785,13.946 27.602,14 c -0.11,0.028 -0.243,0.172 -0.403,0.442 -0.027,0.051 -0.078,0.172 -0.16,0.359 -0.078,0.184 -0.172,0.426 -0.277,0.719 z m -7.922,0 c -0.16,-0.32 -0.281,-0.547 -0.36,-0.68 -0.507,-0.879 -1.039,-1.066 -1.601,-0.558 -0.16,0.16 -0.652,1 -1.481,2.519 l 1.204,4.117 0.16,0 c 0.16,-0.371 0.465,-1.199 0.918,-2.476 0.48,-1.336 0.867,-2.309 1.16,-2.922 z"
                   inkscape:connector-curvature="0" />
              </g>
            </g>
          </g>
          <g
             id="g228">
            <g
               id="g230">
              <g
                 id="g236">
                <path
                   id="path244"
                   style="fill:url(#radialGradient238);fill-rule:evenodd"
                   d="m 16.762,20.918 -0.16,0 c -0.375,0.028 -0.696,0.161 -0.961,0.403 -0.293,0.293 -0.442,0.64 -0.442,1.039 0,0.398 0.149,0.746 0.442,1.039 0.293,0.293 0.64,0.441 1.039,0.441 0.398,0 0.746,-0.148 1.039,-0.441 0.269,-0.293 0.402,-0.641 0.402,-1.039 0,-0.399 -0.133,-0.746 -0.402,-1.039 -0.266,-0.242 -0.586,-0.375 -0.957,-0.403 z"
                   inkscape:connector-curvature="0" />
              </g>
            </g>
          </g>
          <g
             id="g246">
            <g
               id="g248">
              <g
                 id="g254">
                <path
                   id="path264"
                   style="fill:url(#radialGradient16906);fill-rule:evenodd"
                   d="m 11.801,23.719 c -0.16,-0.027 -0.336,-0.039 -0.52,-0.039 l -0.16,0 c -0.426,0.051 -0.789,0.227 -1.082,0.52 -0.371,0.347 -0.559,0.773 -0.559,1.281 0,0.504 0.188,0.934 0.559,1.277 0.348,0.348 0.762,0.524 1.242,0.524 0.504,0 0.934,-0.176 1.278,-0.524 0.347,-0.343 0.519,-0.769 0.519,-1.277 0,-0.508 -0.172,-0.934 -0.519,-1.281 -0.211,-0.215 -0.465,-0.375 -0.758,-0.481 z"
                   inkscape:connector-curvature="0" />
              </g>
            </g>
          </g>
          <g
             id="g266">
            <g
               id="g268">
              <g
                 id="g274">
                <path
                   id="path284"
                   style="fill:url(#radialGradient276);fill-rule:evenodd"
                   d="m 4.199,21.879 c -0.16,-0.027 -0.32,-0.039 -0.48,-0.039 -0.293,0 -0.559,0.078 -0.797,0.239 -0.11,0.054 -0.215,0.136 -0.32,0.242 -0.215,0.211 -0.364,0.453 -0.442,0.719 -0.027,0.132 -0.039,0.265 -0.039,0.402 0,0.426 0.16,0.797 0.481,1.117 0.32,0.32 0.691,0.481 1.117,0.481 0.453,0 0.84,-0.161 1.16,-0.481 0.32,-0.293 0.48,-0.664 0.48,-1.117 0,-0.453 -0.16,-0.828 -0.48,-1.121 -0.211,-0.215 -0.438,-0.36 -0.68,-0.442 z"
                   inkscape:connector-curvature="0" />
              </g>
            </g>
          </g>
          <g
             id="g286">
            <g
               id="g288">
              <g
                 id="g294">
                <path
                   id="path304"
                   style="fill:url(#radialGradient296);fill-rule:evenodd"
                   d="m 2.719,20.161 c -0.051,0 -0.106,-0.016 -0.16,-0.039 l -0.321,0 c -0.398,0 -0.73,0.132 -1,0.398 -0.293,0.293 -0.437,0.641 -0.437,1.039 0,0.402 0.144,0.75 0.437,1.039 0.242,0.27 0.551,0.414 0.922,0.442 0.078,-0.266 0.227,-0.508 0.442,-0.719 0.105,-0.106 0.21,-0.188 0.32,-0.242 C 3.16,21.918 3.426,21.84 3.719,21.84 l 0,-0.398 C 3.695,21.094 3.547,20.786 3.281,20.52 3.094,20.36 2.906,20.239 2.719,20.161 Z"
                   inkscape:connector-curvature="0" />
              </g>
            </g>
          </g>
          <g
             id="g306">
            <g
               id="g308">
              <g
                 id="g314">
                <path
                   id="path328"
                   style="fill:url(#linearGradient316);fill-rule:evenodd"
                   d="m 3.762,18.079 c 0,-0.051 0.011,-0.094 0.039,-0.118 L 3.84,16.598 c -0.371,0.535 -0.668,1.094 -0.879,1.684 l -0.199,0.519 -0.203,1.321 c 0.054,0.023 0.109,0.039 0.16,0.039 l 0.242,-0.602 c 0.184,-0.504 0.453,-1 0.801,-1.48 z"
                   inkscape:connector-curvature="0" />
              </g>
            </g>
          </g>
          <g
             id="g330">
            <g
               id="g332">
              <g
                 id="g338">
                <path
                   id="path346"
                   style="fill:url(#radialGradient340);fill-rule:evenodd"
                   d="M 6.641,20.36 C 6.48,20.309 6.32,20.282 6.16,20.282 l -0.16,0 C 5.707,20.333 5.453,20.465 5.238,20.68 4.973,20.918 4.84,21.227 4.84,21.598 c 0,0.348 0.133,0.656 0.398,0.922 0.27,0.266 0.574,0.398 0.922,0.398 0.348,0 0.652,-0.132 0.918,-0.398 C 7.32,22.282 7.441,21.973 7.441,21.598 7.441,21.227 7.32,20.918 7.078,20.68 6.945,20.547 6.801,20.442 6.641,20.36 Z"
                   inkscape:connector-curvature="0" />
              </g>
            </g>
          </g>
        </g>
        <path
           style="fill:url(#Gradient_4)"
           inkscape:connector-curvature="0"
           d="m 155.16674,198.86869 c -14.336,8.349 -31.523,5.556 -38.369,-6.241 -6.846,-11.767 -0.791,-28.095 13.565,-36.425 14.355,-8.35 31.533,-5.547 38.378,6.24 6.856,11.767 0.782,28.086 -13.574,36.426 z"
           id="path15698" />
        <path
           style="fill:#5f7b85"
           inkscape:connector-curvature="0"
           d="m 155.16674,198.86869 -2.717,-4.667 c -4.77,2.78 -9.865,4.08 -14.54,4.078 -3.669,0.001 -7.062,-0.799 -9.865,-2.233 -2.808,-1.442 -5.03,-3.475 -6.576,-6.129 l -0.003,-0.005 c -1.407,-2.425 -2.08,-5.084 -2.085,-7.936 -0.004,-3.67 1.167,-7.658 3.492,-11.382 2.321,-3.723 5.776,-7.156 10.2,-9.722 l 0.005,-0.003 c 4.776,-2.78 9.872,-4.079 14.547,-4.077 3.672,-0.001 7.065,0.799 9.868,2.233 2.809,1.442 5.032,3.475 6.579,6.129 l 0.003,0.006 c 1.408,2.423 2.081,5.078 2.086,7.926 0.004,3.667 -1.168,7.654 -3.497,11.38 -2.323,3.724 -5.783,7.162 -10.21,9.732 l -0.004,0.003 2.717,4.667 2.713,4.669 c 5.922,-3.443 10.659,-8.09 13.945,-13.351 3.282,-5.259 5.132,-11.157 5.136,-17.1 0.005,-4.594 -1.134,-9.217 -3.554,-13.363 l 0.004,0.007 c -2.636,-4.548 -6.523,-8.04 -11.003,-10.323 -4.486,-2.289 -9.56,-3.414 -14.783,-3.415 -6.655,0.002 -13.584,1.825 -19.978,5.542 l 0.005,-0.003 c -5.923,3.438 -10.659,8.086 -13.942,13.346 -3.279,5.26 -5.125,11.157 -5.129,17.099 -0.005,4.595 1.133,9.22 3.549,13.367 l -0.002,-0.005 c 2.635,4.55 6.523,8.043 11.002,10.325 4.486,2.29 9.558,3.415 14.78,3.416 6.656,-0.002 13.585,-1.826 19.975,-5.545 l -0.005,0.003 -2.713,-4.669"
           id="path15700" />
        <g
           id="Layer_1-8"
           transform="translate(611.05282,-33.713541)">
          <g
             id="g17331"
             transform="matrix(0.5204919,-0.37622926,0.30679799,0.59070078,-235.55655,-102.49053)"
             style="stroke:#5c4a10;stroke-width:3.57921505;stroke-miterlimit:4;stroke-dasharray:none;stroke-opacity:1">
            <path
               style="fill:url(#linearGradient17329);fill-opacity:1;stroke:#5c4a10;stroke-width:3.57921505;stroke-miterlimit:4;stroke-dasharray:none;stroke-opacity:1"
               inkscape:connector-curvature="0"
               d="m -494.19057,41.946691 c -1.816,1.429 -4.472,1.113 -5.901,-0.704 l -33.943,-43.1400001 c -1.429,-1.817 -1.113,-4.473 0.704,-5.902 l 83.726,-65.8669999 c 1.817,-1.429 4.473,-1.112 5.903,0.704 l 33.941,43.121 c 1.43,1.817 1.113,4.473 -0.703,5.902 l -83.727,65.886"
               id="path17234" />
            <path
               style="fill:#5c4a10;fill-opacity:1;stroke:#5c4a10;stroke-width:3.57921505;stroke-miterlimit:4;stroke-dasharray:none;stroke-opacity:1"
               inkscape:connector-curvature="0"
               d="m -494.19057,41.946691 -2.291,-2.913 c -0.091,0.07 -0.179,0.099 -0.3,0.101 l -0.23,-0.05 -0.167,-0.134 -33.943,-43.1400001 c -0.071,-0.092 -0.099,-0.18 -0.102,-0.3 l 0.051,-0.229 0.132,-0.166 0.002,-0.002 83.726,-65.8669999 c 0.092,-0.071 0.18,-0.099 0.3,-0.102 l 0.23,0.051 0.168,0.134 33.942,43.122 c 0.07,0.092 0.099,0.179 0.101,0.299 l -0.05,0.229 -0.135,0.168 -83.726,65.887 4.585,5.825 83.726,-65.887 c 0.986,-0.775 1.748,-1.757 2.252,-2.826 0.506,-1.07 0.761,-2.229 0.761,-3.396 0.003,-1.699 -0.554,-3.443 -1.689,-4.884 l -33.942,-43.121 c -0.774,-0.986 -1.757,-1.749 -2.827,-2.253 -1.07,-0.505 -2.229,-0.76 -3.396,-0.761 -1.7,-0.002 -3.443,0.554 -4.883,1.689 l -83.726,65.867 10e-4,-0.001 c -0.987,0.7739999 -1.75,1.7569999 -2.254,2.8269999 -0.506,1.071 -0.761,2.229 -0.762,3.397 -0.002,1.699 0.554,3.443 1.689,4.88300001 l 33.943,43.14100009 c 0.776,0.986 1.758,1.748 2.827,2.252 1.07,0.506 2.228,0.761 3.396,0.761 1.698,0.003 3.442,-0.552 4.883,-1.687 l -2.292,-2.914"
               id="path17236" />
            <path
               id="path17238"
               transform="translate(-549.53105,-17.568404)"
               d="m 94.8125,-47.755859 c -0.712025,0.05173 -1.416156,0.310406 -2.019531,0.785156 -1.608,1.266 -1.887094,3.596078 -0.621094,5.205078 L 127.30859,2.8828125 c 1.266,1.608 3.59608,1.8870938 5.20508,0.6210937 1.608,-1.266 1.8871,-3.59607808 0.6211,-5.2050781 L 97.998047,-46.349609 c -0.79125,-1.005625 -1.998838,-1.492471 -3.185547,-1.40625 z M 78.75,-35.107422 c -0.711973,0.05159 -1.418109,0.308828 -2.021484,0.783203 -1.609,1.266 -1.887094,3.596078 -0.621094,5.205078 l 35.117188,44.646485 c 1.266,1.609 3.59608,1.889047 5.20508,0.623047 1.609,-1.265 1.88609,-3.597078 0.62109,-5.205079 L 81.933594,-33.703125 C 81.142969,-34.70875 79.936621,-35.193398 78.75,-35.107422 Z m -16.095703,12.666016 c -0.712002,0.05173 -1.416531,0.308453 -2.019531,0.783203 -1.609,1.265 -1.886094,3.597078 -0.621094,5.205078 l 35.126953,44.648437 c 1.266,1.608001 3.596078,1.887094 5.205075,0.621094 1.609,-1.266 1.8871,-3.596078 0.6211,-5.205078 L 65.839844,-21.037109 c -0.790625,-1.005625 -1.998877,-1.490518 -3.185547,-1.404297 z m -16.09375,12.6660154 c -0.712026,0.051785 -1.416156,0.3084531 -2.019531,0.7832031 -1.608,1.266 -1.887094,3.5960781 -0.621094,5.2050781 L 79.056641,40.861328 c 1.266,1.609 3.596078,1.887094 5.205078,0.621094 1.608,-1.266 1.887094,-3.596078 0.621093,-5.205078 L 49.746094,-8.3710938 c -0.79125,-1.005 -1.998838,-1.4906054 -3.185547,-1.4042968 z m -16.082031,12.65625 c -0.712026,0.051609 -1.41811,0.3084531 -2.021485,0.7832031 -1.609,1.265 -1.886093,3.5941251 -0.621093,5.203125 L 62.953125,53.517578 c 1.265,1.609 3.596078,1.887094 5.205078,0.621094 1.609,-1.265 1.887094,-3.596078 0.621094,-5.205078 L 33.662109,4.2851562 c -0.79125,-1.005 -1.996884,-1.4903124 -3.183593,-1.4042968 z"
               style="fill:#5c4a10;fill-opacity:1;stroke:#5c4a10;stroke-width:3.57921505;stroke-miterlimit:4;stroke-dasharray:none;stroke-opacity:1"
               inkscape:connector-curvature="0" />
          </g>
        </g>
      </g>
    </g>
  </g>
</svg>
